<svg xmlns="http://www.w3.org/2000/svg" viewBox="0 0 18.49 24.25"><title>addressBook_1</title><g id="Layer_2" data-name="Layer 2"><g id="Forma_1" data-name="Forma 1" style="isolation:isolate"><g id="Forma_1-2" data-name="Forma 1"><path d="M18,13.19a.35.35,0,0,0,.35-.36V2.31A2.16,2.16,0,0,0,16.23.12H2.56A2.48,2.48,0,0,0,.12,2.62v19a2.56,2.56,0,0,0,.25,1.09,2.44,2.44,0,0,0,2.19,1.4H16.23a2.16,2.16,0,0,0,2.13-2.18v-1.8a.35.35,0,1,0-.69,0v1.8a1.46,1.46,0,0,1-1.44,1.47H2.56a1.75,1.75,0,0,1-1.57-1,1.92,1.92,0,0,1-.17-.78,1.8,1.8,0,0,1,.51-1.26,1.73,1.73,0,0,1,1.23-.52H16.23A2.08,2.08,0,0,0,17,19.7a2.17,2.17,0,0,0,1.35-2V14a.35.35,0,1,0-.69,0v3.65A1.47,1.47,0,0,1,16.76,19a1.39,1.39,0,0,1-.53.1H2.56a2.39,2.39,0,0,0-1.72.73l0,0V2.62A1.76,1.76,0,0,1,2.56.84h.37V7.36a.35.35,0,0,0,.18.31.34.34,0,0,0,.36,0L5.23,6.44,7,7.65a.35.35,0,0,0,.19.06.33.33,0,0,0,.17,0,.35.35,0,0,0,.18-.31V4.58a.35.35,0,1,0-.69,0V6.69l-1.41-1a.35.35,0,0,0-.39,0l-1.41,1V.84H6.83V3.39a.35.35,0,1,0,.69,0V.84h8.71a1.46,1.46,0,0,1,1.44,1.47V12.83A.35.35,0,0,0,18,13.19ZM2.14,22.92h14a1.14,1.14,0,0,0,1.13-1.16V20.71a.35.35,0,1,0-.69,0v1.05a.45.45,0,0,1-.44.45h-14a.34.34,0,0,0-.34.35A.35.35,0,0,0,2.14,22.92Zm0-1.49H15.67a.36.36,0,0,0,0-.71H2.14a.36.36,0,0,0,0,.71Z"/><path d="M18,13.19a.35.35,0,0,0,.35-.36V2.31A2.16,2.16,0,0,0,16.23.12H2.56A2.48,2.48,0,0,0,.12,2.62v19a2.56,2.56,0,0,0,.25,1.09,2.44,2.44,0,0,0,2.19,1.4H16.23a2.16,2.16,0,0,0,2.13-2.18v-1.8a.35.35,0,1,0-.69,0v1.8a1.46,1.46,0,0,1-1.44,1.47H2.56a1.75,1.75,0,0,1-1.57-1,1.92,1.92,0,0,1-.17-.78,1.8,1.8,0,0,1,.51-1.26,1.73,1.73,0,0,1,1.23-.52H16.23A2.08,2.08,0,0,0,17,19.7a2.17,2.17,0,0,0,1.35-2V14a.35.35,0,1,0-.69,0v3.65A1.47,1.47,0,0,1,16.76,19a1.39,1.39,0,0,1-.53.1H2.56a2.39,2.39,0,0,0-1.72.73l0,0V2.62A1.76,1.76,0,0,1,2.56.84h.37V7.36a.35.35,0,0,0,.18.31.34.34,0,0,0,.36,0L5.23,6.44,7,7.65a.35.35,0,0,0,.19.06.33.33,0,0,0,.17,0,.35.35,0,0,0,.18-.31V4.58a.35.35,0,1,0-.69,0V6.69l-1.41-1a.35.35,0,0,0-.39,0l-1.41,1V.84H6.83V3.39a.35.35,0,1,0,.69,0V.84h8.71a1.46,1.46,0,0,1,1.44,1.47V12.83A.35.35,0,0,0,18,13.19ZM2.14,22.92h14a1.14,1.14,0,0,0,1.13-1.16V20.71a.35.35,0,1,0-.69,0v1.05a.45.45,0,0,1-.44.45h-14a.34.34,0,0,0-.34.35A.35.35,0,0,0,2.14,22.92Zm0-1.49H15.67a.36.36,0,0,0,0-.71H2.14a.36.36,0,0,0,0,.71Z" style="fill:none;stroke:#000;stroke-miterlimit:10;stroke-width:0.25px"/></g></g></g></svg>