<svg xmlns="http://www.w3.org/2000/svg" viewBox="0 0 33.4 15.09"><title>delivered</title><g id="Layer_2" data-name="Layer 2"><g id="Layer_1-2" data-name="Layer 1"><path d="M32.19,3.47a4,4,0,0,0-3-1.26H26.36V.68A.67.67,0,0,0,25.68,0H12.16a.68.68,0,0,0-.68.68V3H8.85a.68.68,0,1,0,0,1.35h3.31a.67.67,0,0,0,.68-.68V1.35H25V12H18.55a2.27,2.27,0,0,0-4.22,0l-.15,0H12.84V9.61a.67.67,0,0,0-.68-.68H8.85a.68.68,0,1,0,0,1.35h2.63v2.36a.68.68,0,0,0,.68.68h2.06a2.26,2.26,0,0,0,2.22,1.77,2.28,2.28,0,0,0,2.22-1.77h8.11a2.28,2.28,0,0,0,4.44,0h1.51a.68.68,0,0,0,.68-.68V7A5.1,5.1,0,0,0,32.19,3.47ZM16.44,13.74a.92.92,0,1,1,.92-.92A.92.92,0,0,1,16.44,13.74Zm12.55,0a.92.92,0,1,1,.92-.92A.93.93,0,0,1,29,13.74ZM32,12H31.1A2.29,2.29,0,0,0,29,10.55,2.26,2.26,0,0,0,26.89,12h-.52V3.57H29.2C31,3.57,32,4.86,32,7Z" style="fill:#00a59b"/><polyline points="15.79 5.18 18.54 7.93 23.06 3.42" style="fill:none;stroke:#00a59b;stroke-miterlimit:10;stroke-width:2px"/><line x1="10.88" y1="7.77" x2="0.55" y2="7.77" style="fill:none;stroke:#00a59b;stroke-linecap:round;stroke-linejoin:round;stroke-width:1.10000002384186px"/><line x1="10.88" y1="5.68" x2="4.26" y2="5.68" style="fill:none;stroke:#00a59b;stroke-linecap:round;stroke-linejoin:round;stroke-width:1.10000002384186px"/></g></g></svg>