<svg xmlns="http://www.w3.org/2000/svg" viewBox="0 0 24.6 25"><title>gift</title><g id="Layer_2" data-name="Layer 2"><g id="Layer_1-2" data-name="Layer 1"><path d="M22.78,17.39a.36.36,0,0,0-.36.36v5.67a.86.86,0,0,1-.86.86H3a.86.86,0,0,1-.86-.86V17.75a.36.36,0,0,0-.72,0v5.67A1.58,1.58,0,0,0,3,25H21.56a1.58,1.58,0,0,0,1.58-1.58V17.75a.36.36,0,0,0-.36-.36Z" style="fill:#333"/><path d="M23.88,9.84a.23.23,0,0,1-.23.23H14.88V7h8.77a.23.23,0,0,1,.23.23V9.84ZM16.13,6.28H15.6c.27-.42.61-.93,1-1.44,1.55-2,2.51-2.29,2.85-2.33.15,0,.48,0,1,.55.24.31.2.45.18.52-.12.39-.79,1.07-2.32,1.81-.55.27-1.62.69-2.14.89Zm-1.37,0H14.3v-1a2.45,2.45,0,0,0,0-.27c.29-.45.6-.88.9-1.27,1.46-1.89,2.84-2.9,4.11-3A2.81,2.81,0,0,1,21.81,2a2.28,2.28,0,0,1,.49,2.17,4.39,4.39,0,0,1-1.95,2.16H18.07L18.59,6c.87-.43,2.39-1.29,2.68-2.25A1.18,1.18,0,0,0,21,2.62a1.78,1.78,0,0,0-1.58-.82c-.66.06-1.78.56-3.36,2.6a20.89,20.89,0,0,0-1.27,1.88Zm-.59,11.14L12.69,16.2l0,0h0l0,0h0l0,0H12l0,0h0l-.05,0h0l0,0h0l0,0-1.39,1.2m0,0V7h3.74V17.42M11,5.4a.67.67,0,0,1,.66-.66h1.26a.67.67,0,0,1,.66.66v.88H11V5.4Zm-.71-.11v1H9.84A20.89,20.89,0,0,0,8.57,4.4C7,2.36,5.87,1.86,5.21,1.8a1.78,1.78,0,0,0-1.58.82,1.2,1.2,0,0,0-.3,1.17C3.62,4.75,5.14,5.61,6,6l.52.24H4.25A4.39,4.39,0,0,1,2.3,4.12,2.28,2.28,0,0,1,2.79,2,2.81,2.81,0,0,1,5.31.73C6.58.85,8,1.86,9.42,3.75c.3.39.61.82.9,1.27a2.45,2.45,0,0,0,0,.27Zm-4,.1C4.8,4.65,4.13,4,4,3.58c0-.07-.06-.21.18-.52.48-.59.81-.56,1-.55.34,0,1.3.33,2.85,2.33.39.51.73,1,1,1.44H8.46c-.53-.2-1.59-.62-2.13-.89Zm3.39,4.68H1a.23.23,0,0,1-.23-.23V7.22A.23.23,0,0,1,1,7H9.72v3.08ZM23.65,6.28H21.56A4.32,4.32,0,0,0,23,4.33a2.93,2.93,0,0,0-.61-2.83A3.51,3.51,0,0,0,19.22,0c-1.47.14-3,1.25-4.6,3.3-.26.33-.52.69-.78,1.07A1.34,1.34,0,0,0,12.93,4H11.67a1.34,1.34,0,0,0-.91.35C10.5,4,10.24,3.64,10,3.31,8.4,1.26,6.85.15,5.38,0A3.51,3.51,0,0,0,2.23,1.5a2.93,2.93,0,0,0-.61,2.83A4.32,4.32,0,0,0,3,6.28H1A.94.94,0,0,0,0,7.22V9.84a1,1,0,0,0,1,.95h.51v4.45a.36.36,0,1,0,.72,0V10.79H9.72v6.7a.61.61,0,0,0,0,.14.67.67,0,0,0,.38.47l.07,0a.76.76,0,0,0,.21,0,.62.62,0,0,0,.4-.13l0,0,1.43-1.23L13.78,18h0a.66.66,0,0,0,.43.15.79.79,0,0,0,.29-.06.69.69,0,0,0,.38-.61V10.79h7.54v4.45a.36.36,0,1,0,.72,0V10.79h.51a1,1,0,0,0,1-.95V7.22a.94.94,0,0,0-1-.94Z" style="fill:#333"/><polygon points="12.3 16.22 10.43 17.4 10.43 6.99 10.54 6.99 14.06 6.99 14.17 6.99 14.17 17.42 12.3 16.22" style="fill:#f6931d"/></g></g></svg>