<svg xmlns="http://www.w3.org/2000/svg" viewBox="0 0 164.57 164.57"><title>h-shopping</title><g id="Layer_2" data-name="Layer 2"><g id="Layer_1-2" data-name="Layer 1"><path d="M6.86,48.34V157.71a6.87,6.87,0,0,0,6.85,6.86H150.86a6.87,6.87,0,0,0,6.85-6.86V48.34Z" style="fill:#f5911e"/><path d="M83.31,78.51V94.63h-2V78.51Z" style="fill:#fff"/><path d="M83.31,141.6v16.11H81.6V141.6h1.71Z" style="fill:#fff"/><path d="M111.09,90.86,99.77,102.17c-.34-.34-.68-1-1.37-1.37l11.66-11.31Z" style="fill:#fff"/><path d="M66.51,135.43,54.86,146.74l-1.37-1L64.8,134.4C65.49,134.74,65.83,135.09,66.51,135.43Z" style="fill:#fff"/><path d="M122.06,117.26V119H105.94v-1.71Z" style="fill:#fff"/><path d="M59,118.29V119H42.86v-1.71H59Z" style="fill:#fff"/><path d="M111.09,145.71l-1.38,1.38L98.06,135.43c.34-.34,1-.69,1.37-1.37Z" style="fill:#fff"/><path d="M66.51,101.14c-.34.35-1,.69-1.37,1.37L53.49,90.86l1.37-1.37Z" style="fill:#fff"/><path d="M74.06,96.34c-.69,0-1,.35-1.72.69l-3.77-9.26,1.72-.68Z" style="fill:#fff"/><path d="M96,148.8l-1.71.69-3.78-9.26c.69-.34,1-.34,1.72-.69Z" style="fill:#fff"/><path d="M61,108.69c-.34.34-.34,1-.69,1.71l-9.25-3.77.68-1.72Z" style="fill:#fff"/><path d="M113.49,130.29,112.8,132l-9.26-3.77c.35-.34.35-1,.69-1.72Z" style="fill:#fff"/><path d="M61,127.89l-9.26,3.77-.68-1.72,9.25-3.77A2.66,2.66,0,0,0,61,127.89Z" style="fill:#fff"/><path d="M113.49,106.29l-9.26,3.77c0-.69-.34-1-.69-1.72l9.26-3.77Z" style="fill:#fff"/><path d="M74.06,140.23l-3.77,9.26-1.72-.69,3.77-9.26C73,139.89,73.71,139.89,74.06,140.23Z" style="fill:#fff"/><path d="M96,87.77,92.23,97c-.34-.34-1-.34-1.72-.69l3.78-9.25Z" style="fill:#fff"/><path d="M150.86,0H13.71A6.88,6.88,0,0,0,6.86,6.86v24H157.71v-24A6.88,6.88,0,0,0,150.86,0Z" style="fill:#ffd05c"/><polygon points="112.8 112.8 121.03 141.94 128.57 134.74 135.77 141.94 142.28 135.43 135.09 128.23 142.28 121.03 112.8 112.8" style="fill:#40596b"/><circle cx="63.43" cy="15.43" r="5.14" style="fill:#ff7058"/><circle cx="43.54" cy="15.43" r="5.14" style="fill:#f1f1f1"/><circle cx="23.66" cy="15.43" r="5.14" style="fill:#40596b"/><path d="M157.71,51.77V72a16,16,0,0,1-9.6,3.09,16.25,16.25,0,0,1-16.45-16.46A16.7,16.7,0,0,1,115.2,75.09,16.47,16.47,0,0,1,98.74,58.63,16.69,16.69,0,0,1,82.29,75.09,16.46,16.46,0,0,1,65.83,58.63,16.47,16.47,0,0,1,49.37,75.09,16.25,16.25,0,0,1,32.91,58.63,16.69,16.69,0,0,1,16.46,75.09,15.31,15.31,0,0,1,6.86,72V51.77Z" style="fill:#e3e9ee"/><polygon points="32.91 48.34 0 48.34 6.86 30.86 37.03 30.86 32.91 48.34" style="fill:#ff7058"/><polygon points="65.83 48.34 32.91 48.34 37.03 30.86 67.2 30.86 65.83 48.34" style="fill:#ccd5df"/><polygon points="98.74 48.34 65.83 48.34 67.2 30.86 97.37 30.86 98.74 48.34" style="fill:#ff7058"/><polygon points="131.66 48.34 98.74 48.34 97.37 30.86 127.54 30.86 131.66 48.34" style="fill:#ccd5df"/><polygon points="164.57 48.34 131.66 48.34 127.54 30.86 157.71 30.86 164.57 48.34" style="fill:#ff7058"/><path d="M32.91,55.54a16.46,16.46,0,0,0,32.92,0v-7.2H32.91Z" style="fill:#abb2b9"/><path d="M98.74,48.34v7.2a16.46,16.46,0,1,0,32.92,0v-7.2Z" style="fill:#abb2b9"/><path d="M0,55.54A16.25,16.25,0,0,0,16.46,72h0A16.25,16.25,0,0,0,32.91,55.54v-7.2H0Z" style="fill:#f0543f"/><path d="M65.83,55.54a16.46,16.46,0,1,0,32.91,0v-7.2H65.83v7.2Z" style="fill:#f0543f"/><path d="M131.66,48.34v7.2a16.46,16.46,0,1,0,32.91,0v-7.2Z" style="fill:#f0543f"/><circle cx="82.29" cy="118.29" r="25.71" style="fill:#fff"/><path d="M78.17,125.83l-1-3.09H97V107.66H73.37L72,102.17H65.14v2.4h5.15l6.17,23.66H97.71v-2.4ZM94.63,110.4v9.94H76.8l-2.74-9.94Z" style="fill:#f5911e"/><circle cx="81.6" cy="133.37" r="3.09" style="fill:#f5911e"/><circle cx="92.91" cy="133.37" r="3.09" style="fill:#f5911e"/></g></g></svg>