<svg xmlns="http://www.w3.org/2000/svg" viewBox="0 0 156 156"><title>h-card</title><g id="Layer_2" data-name="Layer 2"><g id="Layer_1-2" data-name="Layer 1"><path d="M155.82,79.15,142.25,7.93A9.77,9.77,0,0,0,130.84.17L16.25,22A9.74,9.74,0,0,0,8.5,33.42l13.57,71.22a9.75,9.75,0,0,0,11.41,7.76L148.07,90.56a9.75,9.75,0,0,0,7.75-11.41" style="fill:#fff"/><rect x="10.6" y="28.59" width="136.16" height="18.77" transform="translate(-5.72 15.41) rotate(-10.8)" style="fill:#cfd1d2"/><path d="M128.64,62.48H9.75A9.75,9.75,0,0,0,0,72.23v74A9.75,9.75,0,0,0,9.75,156H128.64a9.75,9.75,0,0,0,9.75-9.75v-74a9.74,9.74,0,0,0-9.75-9.75" style="fill:#40596b"/><path d="M45.11,119.11H14a1.63,1.63,0,0,1-1.63-1.63V96.59A1.63,1.63,0,0,1,14,95H45.11a1.63,1.63,0,0,1,1.63,1.62v20.89a1.63,1.63,0,0,1-1.63,1.63" style="fill:#ffd05c"/><rect x="12.35" y="101.85" width="34.38" height="1.75" style="fill:#f7b54c"/><rect x="12.35" y="110.48" width="34.38" height="1.75" style="fill:#f7b54c"/><rect x="34.7" y="94.96" width="1.71" height="8" style="fill:#f7b54c"/><rect x="34.7" y="111.67" width="1.71" height="7.45" style="fill:#f7b54c"/><rect x="29.54" y="102.73" width="1.71" height="8.35" style="fill:#f7b54c"/><rect x="39.73" y="102.73" width="1.72" height="8.35" style="fill:#f7b54c"/><rect x="20.89" y="94.96" width="1.72" height="24.14" style="fill:#f7b54c"/><path d="M17.22,86.45H12.35V75.08h4.33a6.23,6.23,0,0,1,1.95.28,2.91,2.91,0,0,1,1.24.75,3,3,0,0,1,.74,2,2.34,2.34,0,0,1-.84,2,4.11,4.11,0,0,1-.4.29l-.4.19a2.87,2.87,0,0,1,1.65.94,2.69,2.69,0,0,1,.61,1.8,3.1,3.1,0,0,1-.79,2.1,4.1,4.1,0,0,1-3.22,1.06m-2.38-6.76H16a4,4,0,0,0,1.54-.23,1,1,0,0,0,.5-1,1,1,0,0,0-.46-1A3.48,3.48,0,0,0,16,77.23H14.84Zm0,4.61h1.7A3.61,3.61,0,0,0,18.13,84a1.06,1.06,0,0,0,.54-1,1,1,0,0,0-.56-1,5,5,0,0,0-1.81-.24H14.83V84.3Z" style="fill:#fff"/><path d="M31.12,86.45l-1-2.46H25.42l-1,2.46H21.75l4.8-11.37H29l4.8,11.37Zm-3.36-8-1.4,3.3h2.79Z" style="fill:#fff"/><polygon points="42.84 75.08 45.32 75.08 45.32 86.45 42.84 86.45 37.54 79.33 37.54 86.45 35.06 86.45 35.06 75.08 37.38 75.08 42.84 82.4 42.84 75.08" style="fill:#fff"/><path d="M48.06,75.08h2.49v4.67l4.2-4.67h3.07l-4.42,5c.37.54,1.09,1.55,2.11,3s1.8,2.59,2.31,3.31h-2.9L51.66,82l-1.12,1.27v3.22H48.06V75.09h0Z" style="fill:#fff"/><polygon points="138.39 121.61 89.09 137.62 89.87 140.13 138.39 124.37 138.39 121.61" style="fill:#334a5e"/><path d="M133.79,154.5l-19.5-62.57-2.45.8,19.57,62.81a9.05,9.05,0,0,0,2.38-1" style="fill:#334a5e"/><path d="M90.71,138.47A36.12,36.12,0,0,1,93,111.22a35,35,0,0,1,20.49-17.64,34.07,34.07,0,0,1,18-.89,34.9,34.9,0,0,1,6.9,2.41V92.18a36.6,36.6,0,0,0-25.71-1.1,37.56,37.56,0,0,0-22,18.93,38.82,38.82,0,0,0-2.43,29.26A38.27,38.27,0,0,0,98.78,156h4a35.42,35.42,0,0,1-12.07-17.53" style="fill:#334a5e"/><path d="M138.39,141.47a70.46,70.46,0,0,0-9.29,2.32c-8.72,2.83-16.52,7.19-22,12.21h4a61.5,61.5,0,0,1,18.78-9.71,70.32,70.32,0,0,1,8.51-2.16v-2.66Z" style="fill:#334a5e"/><path d="M138.39,98.15A59.53,59.53,0,0,1,118.27,109c-9.69,3.15-19.57,4-27.09,2.33l-.55,2.57c8,1.76,18.31.89,28.42-2.39a63.67,63.67,0,0,0,19.34-10Z" style="fill:#334a5e"/><path d="M120.43,155.7c-5.24-5.45-9.71-13.55-12.59-22.79s-3.81-18.48-2.62-26c1.13-7.23,4.06-12,8.23-13.31a8.84,8.84,0,0,1,4.69-.16c3,.68,6.31,2.77,9.57,6.16A54.72,54.72,0,0,1,138.39,117v-6.35a52.62,52.62,0,0,0-8.84-13c-5.74-6-11.73-8.33-16.88-6.67s-8.7,7.14-10,15.4c-1.25,7.94-.29,17.61,2.72,27.23,2.74,8.81,6.91,16.62,11.83,22.29h3.51c-.09-.1-.2-.18-.3-.29" style="fill:#334a5e"/><rect x="60.39" y="138.31" width="11.16" height="4.93" style="fill:#334a5e"/><rect x="36.28" y="138.31" width="11.16" height="4.93" style="fill:#334a5e"/><rect x="12.18" y="138.31" width="11.15" height="4.93" style="fill:#334a5e"/></g></g></svg>