<svg xmlns="http://www.w3.org/2000/svg" viewBox="0 0 23.22 22.5"><title>history_shop</title><g id="Layer_2" data-name="Layer 2"><g id="Layer_1-2" data-name="Layer 1"><path d="M22.85,13.15,21.67,12a1.24,1.24,0,0,0-1.75,0l-6.38,6.38-.88,3.23-.21.21a.41.41,0,0,0,0,.58h0a.42.42,0,0,0,.29.12.4.4,0,0,0,.29-.12l.22-.22,3.22-.88,6.38-6.38a1.23,1.23,0,0,0,0-1.75ZM14.5,18.57l4.24-4.25,1.76,1.76-4.24,4.25Zm-.37.79,1.33,1.34-1.84.5Zm8.14-5-1.18,1.17-1.76-1.76,1.18-1.17a.41.41,0,0,1,.58,0l1.18,1.18a.41.41,0,0,1,0,.58Z" style="fill:#333"/><path d="M11.19,5a.41.41,0,0,0,0,.82h7.47a.41.41,0,0,0,0-.82Z" style="fill:#333"/><path d="M19.07,11.19a.42.42,0,0,0-.41-.41H11.19a.42.42,0,0,0,0,.83h7.47a.42.42,0,0,0,.41-.42Z" style="fill:#333"/><path d="M8.53,3a.4.4,0,0,0-.58,0l-2.59,3L3.77,4.88A.41.41,0,0,0,3.19,5a.41.41,0,0,0,.09.58L5.17,7a.44.44,0,0,0,.25.08.39.39,0,0,0,.31-.15L8.58,3.59A.42.42,0,0,0,8.53,3Z" style="fill:#333"/><path d="M8.53,8.81a.41.41,0,0,0-.58,0l-2.59,3L3.77,10.68a.43.43,0,0,0-.58.09.41.41,0,0,0,.09.58l1.89,1.42a.44.44,0,0,0,.25.08.41.41,0,0,0,.31-.14L8.58,9.39a.41.41,0,0,0-.05-.58Z" style="fill:#333"/><path d="M8,15.07l-2.59,3L3.77,16.9a.42.42,0,0,0-.58.09.41.41,0,0,0,.09.58L5.17,19a.44.44,0,0,0,.25.08.41.41,0,0,0,.31-.14l2.85-3.32A.42.42,0,0,0,8.53,15a.41.41,0,0,0-.58.05Z" style="fill:#333"/><path d="M10.36,21.56H5.05A4.22,4.22,0,0,1,.83,17.34V5.05A4.22,4.22,0,0,1,5.05.83H17.34a4.22,4.22,0,0,1,4.22,4.22V10a.41.41,0,0,0,.41.41.41.41,0,0,0,.42-.41V5.05a5.06,5.06,0,0,0-5.05-5H5.05A5.06,5.06,0,0,0,0,5.05V17.34a5.06,5.06,0,0,0,5.05,5.05h5.31a.42.42,0,0,0,.42-.42.41.41,0,0,0-.42-.41Z" style="fill:#333"/></g></g></svg>