<svg xmlns="http://www.w3.org/2000/svg" viewBox="0 0 187.5 137.26"><title>h-shipping</title><g id="Layer_2" data-name="Layer 2"><g id="Layer_1-2" data-name="Layer 1"><path d="M159.81,35.23H121.1V105.4h63.43V73.81l-7.4-25.56a18,18,0,0,0-17.32-13" style="fill:#ff7058"/><path d="M175.27,73.49,168.68,50.7A9.28,9.28,0,0,0,159.81,44h-29.9V73.49Z" style="fill:#83daff"/><polygon points="175.28 73.48 129.89 73.48 129.89 44.03 175.28 73.48" style="fill:#ccd5df"/><path d="M175.27,73.49,168.68,50.7A9.28,9.28,0,0,0,159.81,44h-29.9Z" style="fill:#f1f1f1"/><path d="M11.72,0h97.66A11.72,11.72,0,0,1,121.1,11.72v93.67H0V11.72A11.72,11.72,0,0,1,11.72,0" style="fill:#ffd05c"/><polygon points="79.37 0.02 79.37 30.98 74.84 26.45 70.09 31.2 65.34 26.45 60.6 31.2 55.84 26.45 51.03 31.2 46.29 26.45 41.71 31.04 41.71 0.02 79.37 0.02" style="fill:#f1f1f1"/><path d="M187.5,105.39v13.24H0V105.39H19.58a26.85,26.85,0,0,1,46.87,0h63a26.81,26.81,0,0,1,46.83,0Z" style="fill:#334a5e"/><path d="M171.52,118.55a18.71,18.71,0,1,1-18.71-18.72,18.71,18.71,0,0,1,18.71,18.72" style="fill:#40596b"/><path d="M160.33,118.55a7.52,7.52,0,1,1-7.51-7.52,7.51,7.51,0,0,1,7.51,7.52" style="fill:#abb2b9"/><path d="M61.72,118.55A18.72,18.72,0,1,1,43,99.83a18.72,18.72,0,0,1,18.72,18.72" style="fill:#40596b"/><path d="M50.52,118.55A7.52,7.52,0,1,1,43,111a7.51,7.51,0,0,1,7.52,7.52" style="fill:#abb2b9"/></g></g></svg>