<svg xmlns="http://www.w3.org/2000/svg" viewBox="0 0 25 25"><title>info</title><g id="Layer_2" data-name="Layer 2"><g id="Layer_1-2" data-name="Layer 1"><circle cx="12.5" cy="12.5" r="12" style="fill:none;stroke:#333;stroke-miterlimit:10"/><path d="M13.48,12.46l-.66,1.95a15.22,15.22,0,0,0-.52,1.67c0,.23.09.34.26.34s.56-.32,1-.94c.2-.28.32-.42.37-.42a.79.79,0,0,1,.24.12c.13.08.19.15.19.21a3.41,3.41,0,0,1-.8,1.22,2.79,2.79,0,0,1-2.18,1.13A1.27,1.27,0,0,1,10,16.42a4.77,4.77,0,0,1,.33-1.48l.49-1.4a18.13,18.13,0,0,0,.68-2.09c0-.17-.07-.26-.21-.26s-.6.29-1,.87c-.16.23-.26.35-.29.35a.82.82,0,0,1-.27-.1c-.13-.06-.21-.12-.21-.18,0-.22.27-.61.79-1.18a2.85,2.85,0,0,1,2.09-1.08,1.46,1.46,0,0,1,1,.35,1.21,1.21,0,0,1,.38.94A4.17,4.17,0,0,1,13.48,12.46Zm1.36-5.94a1.09,1.09,0,0,1-.32.73,1,1,0,0,1-.77.32,1.05,1.05,0,0,1-.75-.3,1.05,1.05,0,0,1,0-1.52,1.08,1.08,0,0,1,.77-.31,1,1,0,0,1,.78.33A1,1,0,0,1,14.84,6.52Z" style="fill:#333"/></g></g></svg>