<svg xmlns="http://www.w3.org/2000/svg" viewBox="0 0 23.12 24.95"><title>logout</title><g id="Layer_2" data-name="Layer 2"><g id="Layer_1-2" data-name="Layer 1"><path d="M12,1.43h6.51a3.2,3.2,0,0,1,3.2,3.2V20.31a3.21,3.21,0,0,1-3.2,3.21H11.88a.72.72,0,1,0,0,1.43h6.61a4.63,4.63,0,0,0,4.63-4.64V4.63A4.64,4.64,0,0,0,18.49,0H12a.72.72,0,0,0,0,1.43Z" style="fill:#333"/><path d="M.21,13l4.54,4.54a.71.71,0,0,0,1-1L2.44,13.18h14.5a.7.7,0,0,0,.71-.71.71.71,0,0,0-.71-.72H2.44L5.76,8.43a.71.71,0,0,0,0-1,.69.69,0,0,0-.5-.21.67.67,0,0,0-.5.21L.22,12a.72.72,0,0,0,0,1Z" style="fill:#333"/></g></g></svg>