<svg xmlns="http://www.w3.org/2000/svg" viewBox="0 0 24 25"><title>notify</title><g id="Layer_2" data-name="Layer 2"><g id="Layer_1-2" data-name="Layer 1"><path d="M24,21.87H0v-.53a4.56,4.56,0,0,1,3.53-4.41V10.82a8.47,8.47,0,0,1,16.94,0v6.11A4.56,4.56,0,0,1,24,21.34ZM1.09,20.82H22.91a3.5,3.5,0,0,0-3-2.93l-.46-.06v-7a7.42,7.42,0,0,0-14.84,0v7l-.46.06a3.5,3.5,0,0,0-3,2.93Z" style="fill:#333"/><path d="M10.54,3.13h-1V2.5a2.51,2.51,0,0,1,5,0v.62h-1V2.5a1.46,1.46,0,0,0-2.92,0Z" style="fill:#333"/><path d="M12,25a4.36,4.36,0,0,1-4.26-3.48l1-.21a3.31,3.31,0,0,0,6.5-.06l1,.19A4.36,4.36,0,0,1,12,25Z" style="fill:#333"/></g></g></svg>