<svg xmlns="http://www.w3.org/2000/svg" viewBox="0 0 12.29 11.06"><title>photo</title><g id="Layer_2" data-name="Layer 2"><g id="Layer_1-2" data-name="Layer 1"><g id="camera-alt"><circle cx="6.14" cy="6.14" r="1.97" style="fill:#231f20"/><path d="M4.1.23l-.91,1h-2A1.23,1.23,0,0,0,0,2.46V9.83a1.24,1.24,0,0,0,1.23,1.23h9.83a1.24,1.24,0,0,0,1.23-1.23V2.46a1.24,1.24,0,0,0-1.23-1.23h-2l-.86-1A.82.82,0,0,0,7.63,0h-3A.66.66,0,0,0,4.1.23Zm2.07,9a3,3,0,0,1-3.1-3.1,3.1,3.1,0,0,1,3-3,3,3,0,0,1,3.1,3.1A3.09,3.09,0,0,1,6.17,9.21Z" style="fill:#231f20"/></g></g></g></svg>