<svg xmlns="http://www.w3.org/2000/svg" viewBox="0 0 25 25"><title>setting</title><g id="Layer_2" data-name="Layer 2"><g id="Layer_1-2" data-name="Layer 1"><path d="M20.36,17.13a.51.51,0,0,0-.72,0,.5.5,0,0,0,0,.71l1,1a1.26,1.26,0,0,1,.37.89,1.24,1.24,0,0,1-.37.89l0,0a1.24,1.24,0,0,1-.89.37,1.26,1.26,0,0,1-.89-.37l-1-1a.51.51,0,0,0-.64-.06,8.35,8.35,0,0,1-3,1.25.51.51,0,0,0-.41.5v1.4A1.25,1.25,0,0,1,12.52,24h0a1.25,1.25,0,0,1-1.25-1.25v-1.4a.51.51,0,0,0-.41-.5,8.35,8.35,0,0,1-3-1.25.51.51,0,0,0-.64.06l-1,1a1.26,1.26,0,0,1-.89.37,1.24,1.24,0,0,1-.89-.37l0,0A1.24,1.24,0,0,1,4,19.72a1.26,1.26,0,0,1,.37-.89l1-1a.51.51,0,0,0,.06-.64,8.35,8.35,0,0,1-1.25-3,.51.51,0,0,0-.5-.41H2.27A1.25,1.25,0,0,1,1,12.52v0a1.25,1.25,0,0,1,1.25-1.25h1.4a.51.51,0,0,0,.5-.41,8.35,8.35,0,0,1,1.25-3,.51.51,0,0,0-.06-.64l-1-1a1.26,1.26,0,0,1,0-1.78l0,0A1.24,1.24,0,0,1,5.28,4a1.26,1.26,0,0,1,.89.37l1,1a.51.51,0,0,0,.72,0,.53.53,0,0,0,0-.72l-1-1a2.27,2.27,0,0,0-3.22,0l0,0a2.27,2.27,0,0,0,0,3.22l.7.7a9.26,9.26,0,0,0-1.09,2.62h-1A2.27,2.27,0,0,0,0,12.48v0a2.27,2.27,0,0,0,2.27,2.27h1a9.26,9.26,0,0,0,1.09,2.62l-.7.7a2.27,2.27,0,0,0,0,3.22l0,0a2.27,2.27,0,0,0,3.22,0l.7-.7a9.26,9.26,0,0,0,2.62,1.09v1A2.27,2.27,0,0,0,12.48,25h0a2.27,2.27,0,0,0,2.27-2.27v-1a9.26,9.26,0,0,0,2.62-1.09l.7.7a2.27,2.27,0,0,0,3.22,0l0,0a2.27,2.27,0,0,0,0-3.22Z" style="fill:#333"/><path d="M22.73,10.21h-1a9.26,9.26,0,0,0-1.09-2.62l.7-.7a2.28,2.28,0,0,0,0-3.22l0,0a2.27,2.27,0,0,0-3.22,0l-.7.7a9.26,9.26,0,0,0-2.62-1.09v-1A2.27,2.27,0,0,0,12.52,0h0a2.27,2.27,0,0,0-2.27,2.27v1.4a.51.51,0,0,0,1,0V2.27A1.25,1.25,0,0,1,12.48,1h0a1.25,1.25,0,0,1,1.25,1.25v1.4a.51.51,0,0,0,.41.5,8.35,8.35,0,0,1,3,1.25.51.51,0,0,0,.64-.06l1-1A1.26,1.26,0,0,1,19.72,4a1.24,1.24,0,0,1,.89.37l0,0a1.26,1.26,0,0,1,0,1.78l-1,1a.5.5,0,0,0-.06.64,8.35,8.35,0,0,1,1.25,3,.51.51,0,0,0,.5.41h1.4A1.25,1.25,0,0,1,24,12.48v0a1.25,1.25,0,0,1-1.25,1.25h-1.4a.51.51,0,1,0,0,1h1.4A2.27,2.27,0,0,0,25,12.52v0a2.27,2.27,0,0,0-2.27-2.27Z" style="fill:#333"/><path d="M12.5,14.42A1.92,1.92,0,0,1,11.29,14a.51.51,0,0,0-.71.07.52.52,0,0,0,.07.72,3,3,0,0,0,1.85.65A2.93,2.93,0,1,0,9.57,12.5a.51.51,0,1,0,1,0,1.92,1.92,0,1,1,1.92,1.92Z" style="fill:#333"/></g></g></svg>