<svg xmlns="http://www.w3.org/2000/svg" viewBox="0 0 22.26 29.68"><defs><style>.cls-1{fill:#333;}</style></defs><title>tos</title><g id="Layer_2" data-name="Layer 2"><g id="Слой_1" data-name="Слой 1"><path class="cls-1" d="M21.83,2.25a1.43,1.43,0,0,0-1-.39H13.4A2.35,2.35,0,0,0,12.82.73,2.29,2.29,0,0,0,11.12,0h0A2.28,2.28,0,0,0,8.83,1.86H1.39A1.39,1.39,0,0,0,0,3.25v25a1.39,1.39,0,0,0,1.39,1.39H20.87a1.37,1.37,0,0,0,1.39-1.36V3.25A1.39,1.39,0,0,0,21.83,2.25ZM9.24,2.78a.46.46,0,0,0,.47-.46A1.36,1.36,0,0,1,11.06.93h.06a1.35,1.35,0,0,1,1,.43,1.41,1.41,0,0,1,.37,1,.46.46,0,0,0,.47.46h2.78V5.57H6.49V2.78ZM21.33,28.29a.46.46,0,0,1-.46.46H1.39a.46.46,0,0,1-.46-.46v-25a.47.47,0,0,1,.46-.47H5.57V6A.45.45,0,0,0,6,6.49h10.2A.46.46,0,0,0,16.7,6V2.78h4.12a.57.57,0,0,1,.37.14.45.45,0,0,1,.14.33Z"/><path class="cls-1" d="M19,4.64h-.92a.47.47,0,1,0,0,.93h.46V26H3.71V5.57h.46a.47.47,0,1,0,0-.93H3.25a.47.47,0,0,0-.47.46V26.43a.47.47,0,0,0,.47.47H19a.47.47,0,0,0,.47-.47V5.1A.47.47,0,0,0,19,4.64Z"/><path class="cls-1" d="M11.59,11.13H16.7a.47.47,0,0,0,0-.93H11.59a.47.47,0,0,0,0,.93Z"/><path class="cls-1" d="M11.59,13.91H15.3a.46.46,0,1,0,0-.92H11.59a.46.46,0,0,0,0,.92Z"/><path class="cls-1" d="M7,13.87a.46.46,0,0,0,.32.13h0a.45.45,0,0,0,.35-.16l2.44-2.94a.46.46,0,1,0-.68-.63l0,0L7.25,12.85,5.89,11.49a.46.46,0,0,0-.65.66Z"/><path class="cls-1" d="M16.7,17.62H11.59a.46.46,0,1,1,0-.92H16.7a.46.46,0,0,1,0,.92Z"/><path class="cls-1" d="M15.3,20.41H11.59a.47.47,0,0,1,0-.93H15.3a.47.47,0,1,1,0,.93Z"/><path class="cls-1" d="M7.28,20.49A.42.42,0,0,1,7,20.36L5.24,18.64a.46.46,0,0,1,0-.65.47.47,0,0,1,.66,0l0,0,1.36,1.36,2.13-2.55a.47.47,0,0,1,.66-.05.46.46,0,0,1,.05.65L7.65,20.33a.42.42,0,0,1-.33.16Z"/></g></g></svg>