<svg xmlns="http://www.w3.org/2000/svg" viewBox="0 0 35 35"><title>trash</title><g id="Layer_2" data-name="Layer 2"><g id="Layer_1-2" data-name="Layer 1"><circle cx="17.5" cy="17.5" r="17.5" style="fill:#cacaca"/><path d="M20.66,26H14.34a1.87,1.87,0,0,1-1.87-1.57L11.15,15h12.7l-1.32,9.39A1.87,1.87,0,0,1,20.66,26Z" style="fill:#fff"/><path d="M23.43,11.51H22l-.76-1.85A1,1,0,0,0,20.3,9H14.7a1,1,0,0,0-.93.65L13,11.51H11.57a1,1,0,0,0-.94,1V14H24.37V12.46A1,1,0,0,0,23.43,11.51Zm-9-1.56a.28.28,0,0,1,.23-.17h5.6a.28.28,0,0,1,.23.17l.63,1.56H13.84Z" style="fill:#fff"/></g></g></svg>