<svg xmlns="http://www.w3.org/2000/svg" viewBox="0 0 30 29.02"><title>all</title><g id="Layer_2" data-name="Layer 2"><g id="Capa_1" data-name="Capa 1"><path d="M15,0a3.65,3.65,0,1,0,3.65,3.65A3.65,3.65,0,0,0,15,0Zm0,5.79a2.15,2.15,0,1,1,2.14-2.14A2.15,2.15,0,0,1,15,5.79Z" style="fill:#ccc"/><path d="M26.35,0A3.65,3.65,0,1,0,30,3.65,3.65,3.65,0,0,0,26.35,0Zm0,5.79A2.15,2.15,0,1,1,28.5,3.65,2.16,2.16,0,0,1,26.35,5.79Z" style="fill:#ccc"/><path d="M3.65,0A3.65,3.65,0,1,0,7.29,3.65,3.65,3.65,0,0,0,3.65,0Zm0,5.79A2.15,2.15,0,1,1,5.79,3.65,2.16,2.16,0,0,1,3.65,5.79Z" style="fill:#ccc"/><path d="M15,10.86a3.65,3.65,0,1,0,3.65,3.65A3.66,3.66,0,0,0,15,10.86Zm0,5.79a2.14,2.14,0,1,1,2.14-2.14A2.14,2.14,0,0,1,15,16.65Z" style="fill:#ccc"/><path d="M26.35,10.86A3.65,3.65,0,1,0,30,14.51,3.66,3.66,0,0,0,26.35,10.86Zm0,5.79a2.14,2.14,0,1,1,2.15-2.14A2.15,2.15,0,0,1,26.35,16.65Z" style="fill:#ccc"/><path d="M3.65,10.86a3.65,3.65,0,1,0,3.64,3.65A3.66,3.66,0,0,0,3.65,10.86Zm0,5.79a2.14,2.14,0,1,1,2.14-2.14A2.15,2.15,0,0,1,3.65,16.65Z" style="fill:#ccc"/><path d="M15,21.73a3.65,3.65,0,1,0,3.65,3.64A3.65,3.65,0,0,0,15,21.73Zm0,5.78a2.14,2.14,0,1,1,2.14-2.14A2.14,2.14,0,0,1,15,27.51Z" style="fill:#ccc"/><path d="M26.35,21.73A3.65,3.65,0,1,0,30,25.37,3.65,3.65,0,0,0,26.35,21.73Zm0,5.78a2.14,2.14,0,1,1,2.15-2.14A2.15,2.15,0,0,1,26.35,27.51Z" style="fill:#ccc"/><path d="M3.65,21.73a3.65,3.65,0,1,0,3.64,3.64A3.65,3.65,0,0,0,3.65,21.73Zm0,5.78a2.14,2.14,0,1,1,2.14-2.14A2.15,2.15,0,0,1,3.65,27.51Z" style="fill:#ccc"/></g></g></svg>