<svg xmlns="http://www.w3.org/2000/svg" xmlns:xlink="http://www.w3.org/1999/xlink" viewBox="0 0 50 44.86"><defs><linearGradient id="linear-gradient" x1="25.17" y1="306.27" x2="32.88" y2="328.81" gradientTransform="translate(1.28 -277.08)" gradientUnits="userSpaceOnUse"><stop offset="0" stop-color="#62e1fb"/><stop offset="1" stop-color="#00a2f3"/></linearGradient><linearGradient id="linear-gradient-2" x1="28.71" y1="311.06" x2="22.97" y2="295.1" gradientTransform="translate(1.28 -277.08)" gradientUnits="userSpaceOnUse"><stop offset="0" stop-color="#00a2f3" stop-opacity="0"/><stop offset="1" stop-color="#0075cd"/></linearGradient><linearGradient id="linear-gradient-3" x1="20.74" y1="284.38" x2="45.08" y2="308.72" gradientTransform="translate(1.28 -277.08)" gradientUnits="userSpaceOnUse"><stop offset="0" stop-color="#ff4c54"/><stop offset="1" stop-color="#be3f45"/></linearGradient><linearGradient id="linear-gradient-4" x1="28.65" y1="301.13" x2="14.45" y2="286.92" gradientTransform="translate(1.28 -277.08)" gradientUnits="userSpaceOnUse"><stop offset="0" stop-color="#be3f45" stop-opacity="0"/><stop offset="1" stop-color="#be3f45"/></linearGradient><linearGradient id="linear-gradient-5" x1="35.09" y1="300.64" x2="20.94" y2="286.49" xlink:href="#linear-gradient-4"/><linearGradient id="linear-gradient-6" x1="42.61" y1="300.48" x2="30.89" y2="288.76" xlink:href="#linear-gradient-4"/><linearGradient id="linear-gradient-7" x1="49.5" y1="297.27" x2="39.73" y2="287.51" xlink:href="#linear-gradient-4"/><linearGradient id="linear-gradient-8" x1="6.48" y1="284.43" x2="3.27" y2="287.65" gradientTransform="translate(1.28 -277.08)" gradientUnits="userSpaceOnUse"><stop offset="0" stop-color="#fff465"/><stop offset="1" stop-color="#ffe600"/></linearGradient></defs><title>sale</title><g id="Layer_2" data-name="Layer 2"><g id="Capa_1" data-name="Capa 1"><path d="M38,42l7.47-14.23,1.14-2.16a6.36,6.36,0,0,0,.31-.71,5.44,5.44,0,0,0-2.6-6.63L18.11,4.44a4.74,4.74,0,0,0-4.67.15l-10,6.06a4.73,4.73,0,0,0-1.37,1.26,4.79,4.79,0,0,0-.91,2.67v.14a2.44,2.44,0,0,0,0,.27v.17l.54,9,.14,2.44a4.75,4.75,0,0,0,2.53,3.91L30.66,44.24A5.44,5.44,0,0,0,38,42ZM9.5,16.93l-.09-.1c-.08-.08-.14-.16-.21-.24a3.16,3.16,0,1,1,5.34-.44l-.06.11-.06.1a1.94,1.94,0,0,1-.21.29l-.07.09a1.54,1.54,0,0,1-.17.19A3.17,3.17,0,0,1,9.5,16.93Z" style="fill:url(#linear-gradient)"/><path d="M38,42l7.47-14.23,1.14-2.16a6.36,6.36,0,0,0,.31-.71,5.44,5.44,0,0,0-2.6-6.63L18.11,4.44a4.74,4.74,0,0,0-4.67.15l-10,6.06a4.85,4.85,0,0,0-1.37,1.26l-.23.39a4.79,4.79,0,0,0-.68,2.44s0,.1,0,.14v.24a4.84,4.84,0,0,0,.66,2.07L6.61,25l1.26,2.09a4.82,4.82,0,0,0,1,1.18L18.4,37.8l12.26,6.44A5.44,5.44,0,0,0,38,42ZM14.54,16.15l-.06.11-.06.1a1.94,1.94,0,0,1-.21.29l-.07.09a1.54,1.54,0,0,1-.17.19,3.17,3.17,0,0,1-4.47,0l-.09-.1c-.08-.08-.14-.16-.21-.24a3.16,3.16,0,1,1,5.34-.44Z" style="fill:url(#linear-gradient-2)"/><path d="M11.93,29.39H44.56A5.44,5.44,0,0,0,50,24V5.44A5.45,5.45,0,0,0,44.56,0H11.94A4.72,4.72,0,0,0,7.88,2.3l-6,10a4.74,4.74,0,0,0,0,4.89L6.61,25l1.26,2.09A4.74,4.74,0,0,0,11.93,29.39Zm2.61-13.24-.06.11-.06.1a1.94,1.94,0,0,1-.21.29l-.07.09a1.54,1.54,0,0,1-.17.19,3.17,3.17,0,0,1-4.47,0l-.09-.1c-.08-.08-.14-.16-.21-.24a3.16,3.16,0,1,1,5.34-.44Z" style="fill:url(#linear-gradient-3)"/><path d="M42.27,29.39H26.18l-9.72-9.72a1.3,1.3,0,0,1-.6-1,1,1,0,0,1,.22-.6.62.62,0,0,1,.5-.3A.69.69,0,0,1,17,18c.16.13.32.28.48.43a2.35,2.35,0,0,0,.72.44,2.83,2.83,0,0,0,1.07.2,2.23,2.23,0,0,0,1.44-.43,1.38,1.38,0,0,0,.41-.52l-.05-.06-3.88-3.88a3.41,3.41,0,0,1-.52-.55,2.83,2.83,0,0,1-.53-1.74,3,3,0,0,1,.33-1.45,2.26,2.26,0,0,1,.87-.94A4.19,4.19,0,0,1,18.5,9a5.28,5.28,0,0,1,1.28-.15,7,7,0,0,1,.89.06,5,5,0,0,1,.92.18,2.17,2.17,0,0,1,.75.35l3.42,3.42L42,29.16a.71.71,0,0,1,.14.1A1,1,0,0,1,42.27,29.39Z" style="fill:url(#linear-gradient-4)"/><path d="M47.94,28.22a5.45,5.45,0,0,1-3.38,1.17H33.18L24,20.23a.57.57,0,0,1-.32-.49.53.53,0,0,1,0-.14l2.06-6.71L26.82,9.4c.14-.38.51-.56,1.12-.56s1,.17,1.13.51l4.27,4.27Z" style="fill:url(#linear-gradient-5)"/><path d="M50,24.36a5.45,5.45,0,0,1-1.47,3.32,6,6,0,0,1-.58.54,5.45,5.45,0,0,1-3.38,1.17H42.67l-9.11-9.11a.45.45,0,0,1-.22-.4V9.47a.44.44,0,0,1,.25-.41,1.29,1.29,0,0,1,.59-.13,1.35,1.35,0,0,1,.59.13l6.08,6.12Z" style="fill:url(#linear-gradient-6)"/><path d="M50,11.6V24c0,.14,0,.28,0,.41a5.45,5.45,0,0,1-1.47,3.32l-7.45-7.4a.45.45,0,0,1-.22-.4V9.48a.45.45,0,0,1,.22-.4.89.89,0,0,1,.52-.15h5.6a.46.46,0,0,1,.41.22Z" style="fill:url(#linear-gradient-7)"/><path d="M15.86,18.7a1,1,0,0,1,.22-.6.62.62,0,0,1,.5-.3A.69.69,0,0,1,17,18c.16.13.32.28.48.43a2.35,2.35,0,0,0,.72.44,2.83,2.83,0,0,0,1.07.2,2.23,2.23,0,0,0,1.44-.43,1.47,1.47,0,0,0,.55-1.25,1.68,1.68,0,0,0-.53-1.26,4,4,0,0,0-1.27-.81c-.5-.2-1-.42-1.51-.65a3.37,3.37,0,0,1-1.28-1,2.83,2.83,0,0,1-.53-1.74,3,3,0,0,1,.33-1.45,2.26,2.26,0,0,1,.87-.94A4.19,4.19,0,0,1,18.5,9a5.28,5.28,0,0,1,1.28-.15,7,7,0,0,1,.89.06,5,5,0,0,1,.92.18,2.17,2.17,0,0,1,.75.35.69.69,0,0,1,.3.53,1.09,1.09,0,0,1-.19.6.56.56,0,0,1-.5.3,1,1,0,0,1-.43-.15,3.87,3.87,0,0,0-.71-.3,3.24,3.24,0,0,0-1-.15,2.58,2.58,0,0,0-1.43.35,1.22,1.22,0,0,0-.54,1.09,1.26,1.26,0,0,0,.28.81,2.1,2.1,0,0,0,.74.56,10.64,10.64,0,0,0,1,.44,10.55,10.55,0,0,1,1.09.5,6.27,6.27,0,0,1,1,.65,2.73,2.73,0,0,1,.73,1,3.77,3.77,0,0,1,.29,1.51,3.1,3.1,0,0,1-1,2.48,3.86,3.86,0,0,1-2.6.85A4.63,4.63,0,0,1,16.88,20C16.2,19.55,15.86,19.13,15.86,18.7Z" style="fill:#fff"/><path d="M23.68,19.74a.46.46,0,0,1,0-.14L26.83,9.4c.13-.38.5-.56,1.11-.56s1,.17,1.14.52l3.11,10.2a.37.37,0,0,1,0,.15.61.61,0,0,1-.37.51,1.55,1.55,0,0,1-.78.21c-.33,0-.53-.11-.61-.34l-.66-2.25H26l-.65,2.24c-.07.24-.27.35-.58.35a1.39,1.39,0,0,1-.71-.2A.59.59,0,0,1,23.68,19.74Zm2.64-3.23h3.13l-1.58-5.4Z" style="fill:#fff"/><path d="M33.34,19.88V9.47a.44.44,0,0,1,.25-.41,1.17,1.17,0,0,1,.59-.13,1.22,1.22,0,0,1,.59.13.44.44,0,0,1,.24.41V19H39.1a.42.42,0,0,1,.37.22,1,1,0,0,1,.13.52,1,1,0,0,1-.13.52.41.41,0,0,1-.37.22h-5a.91.91,0,0,1-.52-.15A.45.45,0,0,1,33.34,19.88Z" style="fill:#fff"/><path d="M40.85,19.88V9.48a.45.45,0,0,1,.22-.4.89.89,0,0,1,.52-.15h5.6a.46.46,0,0,1,.41.22,1,1,0,0,1,.14.5,1,1,0,0,1-.15.54.45.45,0,0,1-.4.22H42.51V14h2.43a.48.48,0,0,1,.4.2.76.76,0,0,1,.15.48.77.77,0,0,1-.14.45.48.48,0,0,1-.41.19H42.51V19h4.68a.47.47,0,0,1,.4.22,1,1,0,0,1,.15.54.92.92,0,0,1-.14.5.46.46,0,0,1-.41.22h-5.6a.89.89,0,0,1-.52-.15A.45.45,0,0,1,40.85,19.88Z" style="fill:#fff"/><path d="M12.49,15.38h0a3,3,0,0,1-4.23,0L.87,8a3,3,0,0,1,0-4.23h0a3,3,0,0,1,4.23,0l7.39,7.39A3,3,0,0,1,12.49,15.38Z" style="fill:url(#linear-gradient-8)"/></g></g></svg>