<svg xmlns="http://www.w3.org/2000/svg" viewBox="0 0 27.06 27.06"><defs><style>.cls-1{fill:#e4e4e4;}.cls-2{fill:#21232c;}</style></defs><title>Account</title><g id="Layer_2" data-name="Layer 2"><g id="Layer_1-2" data-name="Layer 1"><path class="cls-1" d="M13.53,23.25A13,13,0,0,1,.62,11.87a13,13,0,1,0,25.94,1.66,13.1,13.1,0,0,0-.11-1.66A13,13,0,0,1,13.53,23.25Z"/><path class="cls-2" d="M13.53,27.06A13.53,13.53,0,1,1,27.06,13.53,13.55,13.55,0,0,1,13.53,27.06ZM13.53,1A12.53,12.53,0,1,0,26.06,13.53,12.54,12.54,0,0,0,13.53,1Z"/><path class="cls-2" d="M13.53,21.75a8.26,8.26,0,0,1-6.61-3.34,1,1,0,1,1,1.61-1.19A6.22,6.22,0,0,0,18.69,17a1,1,0,1,1,1.65,1.12A8.23,8.23,0,0,1,13.53,21.75Z"/></g></g></svg>