<svg xmlns="http://www.w3.org/2000/svg" viewBox="0 0 48 48"><title>home</title><g id="Layer_2" data-name="Layer 2"><g id="Layer_1-2" data-name="Layer 1"><circle cx="24" cy="24" r="24" style="fill:#ff5c39"/><path d="M33,36.47H15.05a4,4,0,0,1-4-4V19.36a4,4,0,0,1,1.74-3.3l9-6.12a4,4,0,0,1,4.52,0l9,6.12A4,4,0,0,1,37,19.36V32.47A4,4,0,0,1,33,36.47Z" style="fill:#fff;stroke:#ff5c39;stroke-miterlimit:10"/><path d="M30.61,27.65a9.1,9.1,0,0,1-6.54,2.54,9.1,9.1,0,0,1-6.55-2.54" style="fill:none;stroke:#ff5c39;stroke-linecap:round;stroke-linejoin:round;stroke-width:2px"/></g></g></svg>