<svg xmlns="http://www.w3.org/2000/svg" viewBox="0 0 24.76 25.98"><defs><style>.cls-1{fill:#e4e4e4;}.cls-2,.cls-3{fill:none;stroke:#21232c;}.cls-2{stroke-miterlimit:10;}.cls-3{stroke-linecap:round;stroke-linejoin:round;stroke-width:2px;}</style></defs><title>Home</title><g id="Layer_2" data-name="Layer 2"><g id="Layer_1-2" data-name="Layer 1"><path class="cls-1" d="M5.55,17.22s-.19,7.81,15,8.26c0,0,4.31.77,3.67-6.93C24.26,18.55,10.09,23.45,5.55,17.22Z"/><path class="cls-2" d="M20.59,25.48H4.17A3.68,3.68,0,0,1,.5,21.8v-12a3.67,3.67,0,0,1,1.6-3l8.21-5.61a3.68,3.68,0,0,1,4.14,0l8.21,5.61a3.67,3.67,0,0,1,1.6,3v12A3.67,3.67,0,0,1,20.59,25.48Z"/><path class="cls-3" d="M18.45,17.39a8.36,8.36,0,0,1-6,2.32,8.35,8.35,0,0,1-6-2.32"/></g></g></svg>