<svg xmlns="http://www.w3.org/2000/svg" viewBox="0 0 23.89 27"><defs><style>.cls-1{fill:#ff5c39;}.cls-1,.cls-3{stroke:#ff5c39;}.cls-1,.cls-3,.cls-4{stroke-miterlimit:10;}.cls-2{fill:#ee4036;stroke:#ee4036;stroke-linecap:round;stroke-linejoin:round;}.cls-3{fill:none;}.cls-4{fill:#fff;stroke:#fff;}</style></defs><title>Shop_active</title><g id="Layer_2" data-name="Layer 2"><g id="Layer_1-2" data-name="Layer 1"><path class="cls-1" d="M16.6,26.5H7.29a3.27,3.27,0,0,1-3.15-2.39L.62,11.64A3.29,3.29,0,0,1,3.78,7.47H20.11a3.28,3.28,0,0,1,3.15,4.17L19.75,24.11A3.29,3.29,0,0,1,16.6,26.5Z"/><path class="cls-2" d="M5.16,23.25c-.43,0-.85,0-1.27,0l.25.89A3.27,3.27,0,0,0,7.29,26.5H16.6a3.29,3.29,0,0,0,3.15-2.39l2.18-7.76A23.72,23.72,0,0,1,5.16,23.25Z"/><path class="cls-3" d="M6,7.47c0-3.85,2.05-7,5.9-7s5.91,3.12,5.91,7"/><path class="cls-4" d="M19.86,12.62a2,2,0,1,1-2-2A2,2,0,0,1,19.86,12.62Z"/></g></g></svg>